<svg width="32" height="32" viewBox="0 0 32 32" fill="none" xmlns="http://www.w3.org/2000/svg">
<rect width="32" height="32" rx="4" fill="#F2F4F8"/>
<path d="M23.82 8.18002C23.7629 8.12296 23.6952 8.07767 23.6206 8.04678C23.546 8.0159 23.4661 8 23.3854 8C23.3047 8 23.2248 8.0159 23.1502 8.04678C23.0757 8.07767 23.0079 8.12296 22.9509 8.18002L16 15.1309L9.04909 8.18002C8.93384 8.06477 8.77753 8 8.61454 8C8.45156 8 8.29524 8.06477 8.17999 8.18002C8.06474 8.29527 8 8.45159 8 8.61457C8 8.77756 8.06474 8.93388 8.17999 9.04913L15.1309 16L8.17999 22.9509C8.12293 23.008 8.07766 23.0757 8.04678 23.1502C8.0159 23.2248 8 23.3047 8 23.3854C8 23.4661 8.0159 23.546 8.04678 23.6206C8.07766 23.6952 8.12293 23.7629 8.17999 23.82C8.23706 23.877 8.30481 23.9223 8.37937 23.9532C8.45393 23.9841 8.53384 24 8.61454 24C8.69525 24 8.77516 23.9841 8.84972 23.9532C8.92428 23.9223 8.99202 23.877 9.04909 23.82L16 16.8691L22.9509 23.82C23.0079 23.877 23.0757 23.9223 23.1502 23.9532C23.2248 23.9841 23.3047 24 23.3854 24C23.4661 24 23.546 23.9841 23.6206 23.9532C23.6952 23.9223 23.7629 23.877 23.82 23.82C23.877 23.7629 23.9223 23.6952 23.9532 23.6206C23.9841 23.546 24 23.4661 24 23.3854C24 23.3047 23.9841 23.2248 23.9532 23.1502C23.9223 23.0757 23.877 23.008 23.82 22.9509L16.8691 16.001L23.82 9.05004C23.8772 8.99295 23.9226 8.92519 23.9535 8.85055C23.9845 8.7759 24.0004 8.69584 24.0004 8.61503C24.0004 8.53422 23.9845 8.45422 23.9535 8.37957C23.9226 8.30492 23.8772 8.23711 23.82 8.18002Z" fill="#6B82AB" stroke="#6B82AB" stroke-width="0.5"/>
</svg>
