<svg width="18" height="17" viewBox="0 0 18 17" fill="none" xmlns="http://www.w3.org/2000/svg">
<path d="M11.9312 7.85161V3.12189C11.9312 2.63702 11.7391 2.17046 11.3914 1.83197L9.82707 0.26759C9.47028 -0.0891968 8.89393 -0.0891968 8.53714 0.26759L6.98192 1.82282C6.63428 2.17046 6.44216 2.63702 6.44216 3.12189V4.19225H2.7828C1.77648 4.19225 0.953125 5.01561 0.953125 6.02193V15.1703C0.953125 16.1766 1.77648 17 2.7828 17H15.5906C16.5969 17 17.4202 16.1766 17.4202 15.1703V9.68129C17.4202 8.67496 16.5969 7.85161 15.5906 7.85161H11.9312ZM4.61248 15.1703H2.7828V13.3406H4.61248V15.1703ZM4.61248 11.511H2.7828V9.68129H4.61248V11.511ZM4.61248 7.85161H2.7828V6.02193H4.61248V7.85161ZM10.1015 15.1703H8.27184V13.3406H10.1015V15.1703ZM10.1015 11.511H8.27184V9.68129H10.1015V11.511ZM10.1015 7.85161H8.27184V6.02193H10.1015V7.85161ZM10.1015 4.19225H8.27184V2.36257H10.1015V4.19225ZM15.5906 15.1703H13.7609V13.3406H15.5906V15.1703ZM15.5906 11.511H13.7609V9.68129H15.5906V11.511Z" fill="white"/>
</svg>
