<svg width="48" height="48" viewBox="0 0 48 48" fill="none" xmlns="http://www.w3.org/2000/svg">
<circle cx="24" cy="24" r="24" fill="#FFF3F3"/>
<path d="M19.4616 30.6126H28.6866C28.5009 29.5231 27.9362 28.5342 27.0922 27.8206C26.2483 27.107 25.1793 26.7146 24.0741 26.7126C22.9627 26.6913 21.8815 27.0755 21.0327 27.7932C20.1839 28.5109 19.6254 29.5131 19.4616 30.6126ZM29.5491 32.1751H18.5241C18.4209 32.1805 18.3177 32.1641 18.2212 32.1271C18.1247 32.09 18.0371 32.0331 17.9641 31.9601C17.891 31.887 17.8341 31.7994 17.797 31.7029C17.76 31.6065 17.7437 31.5033 17.7491 31.4001C17.7491 29.7425 18.4075 28.1528 19.5796 26.9807C20.7517 25.8086 22.3414 25.1501 23.9991 25.1501H24.0741C25.7039 25.1495 27.2695 25.7857 28.437 26.9228C29.6045 28.06 30.2817 29.6083 30.3241 31.2376V31.4001C30.3241 31.5019 30.304 31.6026 30.2651 31.6967C30.2261 31.7907 30.169 31.8761 30.0971 31.9481C30.0251 32.0201 29.9397 32.0771 29.8456 32.1161C29.7516 32.155 29.6508 32.1751 29.5491 32.1751ZM23.9991 18.1126C23.5337 18.1101 23.0782 18.2458 22.6901 18.5025C22.302 18.7592 21.9988 19.1254 21.819 19.5546C21.6393 19.9838 21.5909 20.4567 21.6802 20.9133C21.7695 21.37 21.9923 21.7899 22.3204 22.1198C22.6486 22.4497 23.0673 22.6748 23.5235 22.7665C23.9797 22.8582 24.4528 22.8124 24.8829 22.6349C25.3131 22.4574 25.6808 22.1562 25.9396 21.7695C26.1984 21.3827 26.3365 20.9279 26.3366 20.4626C26.3416 20.1536 26.2846 19.8468 26.1691 19.5603C26.0536 19.2737 25.8818 19.0132 25.6639 18.7941C25.446 18.5751 25.1864 18.4019 24.9005 18.2848C24.6145 18.1678 24.308 18.1092 23.9991 18.1126ZM23.9991 24.3626C23.2242 24.3651 22.466 24.1374 21.8207 23.7084C21.1754 23.2795 20.672 22.6685 20.3743 21.9531C20.0766 21.2377 19.9981 20.45 20.1486 19.6899C20.2992 18.9298 20.6721 18.2315 21.22 17.6835C21.7679 17.1356 22.4662 16.7627 23.2263 16.6122C23.9865 16.4616 24.7742 16.5401 25.4896 16.8378C26.205 17.1355 26.8159 17.6389 27.2449 18.2842C27.6738 18.9295 27.9015 19.6877 27.8991 20.4626C27.9041 20.9761 27.8066 21.4855 27.6124 21.961C27.4182 22.4364 27.1311 22.8683 26.7679 23.2315C26.4048 23.5946 25.9729 23.8817 25.4974 24.0759C25.022 24.2701 24.5126 24.3676 23.9991 24.3626Z" fill="#FF8A8A"/>
<path d="M11.6007 31.5001C11.5951 31.5978 11.6105 31.6956 11.6457 31.787C11.681 31.8783 11.7353 31.9611 11.8051 32.0297C11.875 32.0984 11.9587 32.1513 12.0506 32.185C12.1425 32.2187 12.2406 32.2323 12.3382 32.2251H16.0132C16.1173 32.2387 16.2231 32.23 16.3235 32.1994C16.4239 32.1689 16.5166 32.1174 16.5955 32.0481C16.6744 31.9789 16.7376 31.8937 16.7809 31.7981C16.8242 31.7025 16.8466 31.5987 16.8465 31.4938C16.8466 31.3889 16.8242 31.2851 16.7809 31.1895C16.7376 31.0939 16.6744 31.0087 16.5955 30.9395C16.5166 30.8703 16.4239 30.8187 16.3235 30.7882C16.2231 30.7576 16.1173 30.7489 16.0132 30.7626H13.0757C13.2537 29.7453 13.7878 28.8245 14.5825 28.1649C15.3772 27.5054 16.3806 27.1501 17.4132 27.1626H17.9257C18.1213 27.1808 18.3162 27.1206 18.4674 26.9952C18.6186 26.8697 18.7138 26.6894 18.732 26.4938C18.7502 26.2982 18.69 26.1034 18.5646 25.9522C18.4392 25.801 18.2588 25.7058 18.0632 25.6876C17.8506 25.6359 17.6318 25.6149 17.4132 25.6251H17.2632C15.7348 25.6579 14.2814 26.2941 13.2205 27.3949C12.1596 28.4956 11.5773 29.9714 11.6007 31.5001Z" fill="#FF8A8A"/>
<path d="M17.4741 24.9126C18.0903 24.9149 18.6969 24.76 19.2366 24.4626C19.3267 24.4182 19.4065 24.3556 19.4711 24.2787C19.5357 24.2018 19.5836 24.1124 19.6118 24.016C19.64 23.9197 19.6479 23.8185 19.6349 23.7189C19.622 23.6194 19.5885 23.5236 19.5366 23.4376C19.4897 23.3499 19.4256 23.2726 19.348 23.2104C19.2705 23.1481 19.1812 23.1021 19.0854 23.0753C18.9897 23.0484 18.8895 23.0412 18.7909 23.0541C18.6923 23.0669 18.5973 23.0996 18.5116 23.1501C18.1702 23.3286 17.7906 23.4219 17.4054 23.4219C17.0201 23.4219 16.6405 23.3286 16.2991 23.1501C15.8244 22.8409 15.4864 22.3614 15.3548 21.8104C15.2231 21.2594 15.3079 20.6788 15.5915 20.1884C15.8752 19.6981 16.3362 19.3352 16.8794 19.1745C17.4227 19.0139 18.0069 19.0678 18.5116 19.3251C18.6927 19.4051 18.8968 19.4163 19.0856 19.3564C19.2743 19.2966 19.4347 19.1699 19.5366 19.0001C19.6224 18.8205 19.6392 18.6156 19.5839 18.4243C19.5286 18.2331 19.405 18.0688 19.2366 17.9626C18.714 17.6185 18.0998 17.4399 17.4741 17.4501C16.9875 17.4449 16.5048 17.5378 16.0548 17.7232C15.6048 17.9086 15.1968 18.1826 14.855 18.5291C14.5132 18.8755 14.2447 19.2873 14.0654 19.7397C13.8861 20.1922 13.7998 20.6761 13.8116 21.1626C13.8113 22.1422 14.1944 23.083 14.8788 23.7838C15.5633 24.4846 16.4948 24.8898 17.4741 24.9126Z" fill="#FF8A8A"/>
<path d="M36.3866 31.5002C36.4035 29.9834 35.823 28.5209 34.7705 27.4286C33.7179 26.3363 32.2779 25.702 30.7616 25.6627H30.6116C30.3922 25.6504 30.1724 25.6758 29.9616 25.7377C29.8651 25.7455 29.7711 25.7725 29.6852 25.8172C29.5993 25.8619 29.5233 25.9233 29.4615 25.9979C29.3998 26.0725 29.3536 26.1586 29.3257 26.2514C29.2978 26.3441 29.2887 26.4414 29.2991 26.5377C29.3181 26.7313 29.4128 26.9096 29.5626 27.0337C29.7125 27.1577 29.9053 27.2176 30.0991 27.2002H30.6116C31.6376 27.1876 32.6348 27.5403 33.4248 28.1952C34.2148 28.8501 34.7462 29.7645 34.9241 30.7752H31.9991C31.8068 30.7752 31.6224 30.8516 31.4864 30.9875C31.3504 31.1235 31.2741 31.3079 31.2741 31.5002C31.2741 31.6925 31.3504 31.8769 31.4864 32.0128C31.6224 32.1488 31.8068 32.2252 31.9991 32.2252H35.6491C35.7467 32.2325 35.8448 32.2188 35.9367 32.1851C36.0286 32.1514 36.1123 32.0985 36.1822 32.0299C36.252 31.9612 36.3063 31.8784 36.3416 31.7871C36.3768 31.6958 36.3922 31.5979 36.3866 31.5002Z" fill="#FF8A8A"/>
<path d="M34.1866 21.2373C34.1933 20.7572 34.1038 20.2806 33.9236 19.8356C33.7433 19.3905 33.4758 18.986 33.1369 18.6459C32.7979 18.3058 32.3944 18.0369 31.9499 17.8551C31.5055 17.6733 31.0292 17.5823 30.5491 17.5873C29.9234 17.5771 29.3092 17.7557 28.7866 18.0998C28.6696 18.2175 28.595 18.3707 28.5743 18.5353C28.5537 18.6999 28.5882 18.8668 28.6725 19.0097C28.7569 19.1526 28.8862 19.2635 29.0403 19.325C29.1944 19.3866 29.3645 19.3953 29.5241 19.3498C29.7705 19.1616 30.0542 19.028 30.3563 18.9578C30.6583 18.8876 30.9719 18.8824 31.2761 18.9426C31.5803 19.0027 31.8683 19.1269 32.1208 19.3069C32.3734 19.4868 32.5848 19.7184 32.7411 19.9862C32.8974 20.2541 32.9949 20.5522 33.0272 20.8606C33.0595 21.169 33.0258 21.4808 32.9285 21.7752C32.8311 22.0696 32.6723 22.34 32.4625 22.5684C32.2527 22.7968 31.9967 22.9779 31.7116 23.0998C31.3767 23.2848 31.0004 23.3818 30.6178 23.3818C30.2353 23.3818 29.859 23.2848 29.5241 23.0998C29.4372 23.0515 29.3417 23.021 29.2429 23.0099C29.1442 22.9989 29.0442 23.0075 28.9488 23.0355C28.8535 23.0634 28.7646 23.11 28.6874 23.1725C28.6102 23.2351 28.5462 23.3123 28.4991 23.3998C28.4506 23.485 28.4195 23.5789 28.4077 23.6762C28.3959 23.7735 28.4036 23.8721 28.4304 23.9664C28.4572 24.0607 28.5024 24.1486 28.5636 24.2252C28.6247 24.3018 28.7005 24.3654 28.7866 24.4123C29.3263 24.7097 29.9329 24.8646 30.5491 24.8623C31.5028 24.8342 32.4099 24.4437 33.0857 23.7702C33.7615 23.0967 34.1552 22.1909 34.1866 21.2373Z" fill="#FF8A8A"/>
</svg>
