<svg width="12" height="7" viewBox="0 0 12 7" fill="none" xmlns="http://www.w3.org/2000/svg">
<path d="M11.9999 0.871965C11.9993 0.659485 11.9146 0.455884 11.7644 0.305637C11.6141 0.155391 11.4105 0.0707101 11.198 0.0700933C11.0927 0.0672283 10.9879 0.0872758 10.891 0.12885C10.7942 0.170424 10.7075 0.232535 10.637 0.31089L6.09107 5.0438L1.54519 0.310891C1.47279 0.234745 1.38567 0.174111 1.28912 0.132681C1.19256 0.0912513 1.0886 0.0698891 0.983528 0.0698891C0.878461 0.0698891 0.774491 0.0912513 0.677938 0.132681C0.581384 0.174111 0.494263 0.234745 0.421868 0.310891C0.276616 0.454779 0.192692 0.649299 0.18768 0.853693C0.182669 1.05809 0.256959 1.25649 0.394985 1.40733L5.50194 6.75508C5.64786 6.90669 5.84772 6.99456 6.05807 6.9996C6.26843 7.00463 6.47227 6.92642 6.62526 6.78196L6.65215 6.75508L11.786 1.40733C11.8553 1.33671 11.91 1.25302 11.9467 1.16112C11.9834 1.06921 12.0015 0.970922 11.9999 0.871965Z" fill="#08192A"/>
</svg>
