<svg width="48" height="48" viewBox="0 0 48 48" fill="none" xmlns="http://www.w3.org/2000/svg">
<circle cx="24" cy="24" r="24" fill="#FFF3F7"/>
<path d="M32.75 14.5C32.9469 14.5063 33.1341 14.5873 33.2734 14.7266C33.4127 14.8659 33.4937 15.0531 33.5 15.25V28.2625C33.4968 28.4604 33.4167 28.6493 33.2768 28.7893C33.1368 28.9292 32.9479 29.0093 32.75 29.0125H15.25C15.0521 29.0093 14.8632 28.9292 14.7232 28.7893C14.5833 28.6493 14.5032 28.4604 14.5 28.2625V15.25C14.5063 15.0531 14.5873 14.8659 14.7266 14.7266C14.8659 14.5873 15.0531 14.5063 15.25 14.5H32.75ZM32.75 12.75H15.25C14.587 12.75 13.9511 13.0134 13.4822 13.4822C13.0134 13.9511 12.75 14.587 12.75 15.25V28.2625C12.75 28.9255 13.0134 29.5614 13.4822 30.0303C13.9511 30.4991 14.587 30.7625 15.25 30.7625H32.75C33.413 30.7625 34.0489 30.4991 34.5178 30.0303C34.9866 29.5614 35.25 28.9255 35.25 28.2625V15.25C35.25 14.587 34.9866 13.9511 34.5178 13.4822C34.0489 13.0134 33.413 12.75 32.75 12.75Z" fill="#FD5F93"/>
<path fill-rule="evenodd" clip-rule="evenodd" d="M17.4407 34.5251C17.1703 34.8963 16.7322 35.1376 16.2377 35.1376C15.7432 35.1376 15.3051 34.8963 15.0346 34.5251H14.1875C13.7043 34.5251 13.3125 34.1333 13.3125 33.6501C13.3125 33.1668 13.7043 32.7751 14.1875 32.7751H15.0346C15.3051 32.4039 15.7432 32.1626 16.2377 32.1626C16.7321 32.1626 17.1703 32.4039 17.4407 32.7751H34C34.4832 32.7751 34.875 33.1668 34.875 33.6501C34.875 34.1333 34.4832 34.5251 34 34.5251H17.4407Z" fill="#FD5F93"/>
<path d="M27.5625 21.4251C27.6194 21.4596 27.6665 21.5083 27.6991 21.5663C27.7318 21.6243 27.7489 21.6898 27.7489 21.7563C27.7489 21.8229 27.7318 21.8884 27.6991 21.9464C27.6665 22.0044 27.6194 22.053 27.5625 22.0876L24.875 23.6376L22.2 25.1751C22.142 25.2072 22.0768 25.2239 22.0106 25.2236C21.9443 25.2233 21.8793 25.2061 21.8216 25.1735C21.7639 25.1409 21.7155 25.094 21.6811 25.0374C21.6467 24.9808 21.6274 24.9163 21.625 24.8501V18.6626C21.6274 18.5964 21.6467 18.5319 21.6811 18.4753C21.7155 18.4187 21.7639 18.3718 21.8216 18.3392C21.8793 18.3066 21.9443 18.2894 22.0106 18.2891C22.0768 18.2888 22.142 18.3055 22.2 18.3376L24.875 19.8751L27.5625 21.4251Z" fill="#FD5F93"/>
</svg>
