<svg width="48" height="48" viewBox="0 0 48 48" fill="none" xmlns="http://www.w3.org/2000/svg">
<circle cx="24" cy="24" r="24" fill="#FBE5E2"/>
<g clip-path="url(#clip0_1647_40737)">
<g clip-path="url(#clip1_1647_40737)">
<path d="M29 14.25H29.25V14V12.75C29.25 12.2006 29.7006 11.75 30.25 11.75C30.7994 11.75 31.25 12.2006 31.25 12.75V14V14.25H31.5H32.75C33.9869 14.25 35 15.2631 35 16.5V34C35 35.2369 33.9869 36.25 32.75 36.25H15.25C14.0014 36.25 13 35.2377 13 34L13.0125 16.5002V16.5C13.0125 15.2606 14.003 14.25 15.25 14.25H16.5H16.75V14V12.75C16.75 12.2006 17.2006 11.75 17.75 11.75C18.2994 11.75 18.75 12.2006 18.75 12.75V14V14.25H19H29ZM15.25 20H15V20.25V32.75C15 33.5756 15.6744 34.25 16.5 34.25H31.5C32.3256 34.25 33 33.5756 33 32.75V20.25V20H32.75H15.25ZM25.25 25.5H29C29.5494 25.5 30 25.9506 30 26.5V30.25C30 30.7994 29.5494 31.25 29 31.25H25.25C24.7006 31.25 24.25 30.7994 24.25 30.25V26.5C24.25 25.9506 24.7006 25.5 25.25 25.5Z" fill="#EB7160" stroke="#FBE5E2" stroke-width="0.5"/>
</g>
</g>
<defs>
<clipPath id="clip0_1647_40737">
<rect width="30" height="30" fill="white" transform="translate(9 9)"/>
</clipPath>
<clipPath id="clip1_1647_40737">
<rect width="30" height="30" fill="white" transform="translate(9 9)"/>
</clipPath>
</defs>
</svg>
