<svg width="48" height="48" viewBox="0 0 48 48" fill="none" xmlns="http://www.w3.org/2000/svg">
<circle cx="24" cy="24" r="24" fill="#EFF8F3"/>
<path d="M24 13.2C26.136 13.2 28.2241 13.8334 30.0002 15.0201C31.7762 16.2068 33.1605 17.8936 33.9779 19.867C34.7953 21.8405 35.0092 24.012 34.5925 26.107C34.1758 28.202 33.1472 30.1263 31.6368 31.6368C30.1264 33.1472 28.202 34.1758 26.107 34.5925C24.012 35.0092 21.8405 34.7953 19.867 33.9779C17.8936 33.1605 16.2069 31.7762 15.0201 30.0002C13.8334 28.2241 13.2 26.136 13.2 24C13.2066 21.1377 14.3466 18.3945 16.3705 16.3705C18.3945 14.3466 21.1377 13.2066 24 13.2ZM24 11.5C21.5277 11.5 19.111 12.2331 17.0554 13.6066C14.9998 14.9801 13.3976 16.9324 12.4515 19.2165C11.5054 21.5005 11.2579 24.0139 11.7402 26.4386C12.2225 28.8634 13.413 31.0907 15.1612 32.8388C16.9093 34.587 19.1366 35.7775 21.5614 36.2598C23.9861 36.7421 26.4995 36.4946 28.7836 35.5485C31.0676 34.6024 33.0199 33.0002 34.3934 30.9446C35.7669 28.889 36.5 26.4723 36.5 24C36.5 22.3585 36.1767 20.733 35.5485 19.2165C34.9203 17.6999 33.9996 16.3219 32.8388 15.1612C31.6781 14.0004 30.3001 13.0797 28.7836 12.4515C27.267 11.8233 25.6415 11.5 24 11.5Z" fill="#5FBD8A"/>
<path fill-rule="evenodd" clip-rule="evenodd" d="M19.1504 18.9502C19.1504 18.5015 19.5142 18.1377 19.9629 18.1377H27.8004C28.2491 18.1377 28.6129 18.5015 28.6129 18.9502C28.6129 19.3989 28.2491 19.7627 27.8004 19.7627H19.9629C19.5142 19.7627 19.1504 19.3989 19.1504 18.9502Z" fill="#5FBD8A"/>
<path fill-rule="evenodd" clip-rule="evenodd" d="M19.1504 22.25C19.1504 21.8013 19.5142 21.4375 19.9629 21.4375H27.8004C28.2491 21.4375 28.6129 21.8013 28.6129 22.25C28.6129 22.6987 28.2491 23.0625 27.8004 23.0625H19.9629C19.5142 23.0625 19.1504 22.6987 19.1504 22.25Z" fill="#5FBD8A"/>
<path fill-rule="evenodd" clip-rule="evenodd" d="M19.2629 19C19.2629 18.5513 19.6267 18.1875 20.0754 18.1875H22.3504C22.3504 18.1875 22.3504 18.1875 22.3504 18.1875C23.3688 18.1875 24.3456 18.5909 25.0672 19.3095C25.7887 20.0281 26.1962 21.0033 26.2004 22.0217L25.3879 22.025L26.2004 22.0283C26.1962 23.0467 25.7887 24.0219 25.0672 24.7405C24.3456 25.4591 23.3688 25.8625 22.3504 25.8625H21.9642L26.3793 30.1549C26.701 30.4677 26.7083 30.9821 26.3955 31.3039C26.0827 31.6256 25.5683 31.6329 25.2465 31.3201L19.3965 25.6326C19.1594 25.402 19.0857 25.0508 19.2101 24.7444C19.3345 24.4379 19.6322 24.2375 19.9629 24.2375H22.3504C22.9389 24.2375 23.5035 24.0043 23.9205 23.5891C24.3367 23.1745 24.5721 22.6123 24.5754 22.025C24.5721 21.4377 24.3367 20.8754 23.9205 20.4609C23.5035 20.0457 22.9389 19.8125 22.3504 19.8125H20.0754C19.6267 19.8125 19.2629 19.4487 19.2629 19Z" fill="#5FBD8A"/>
</svg>
