<svg width="21" height="20" viewBox="0 0 21 20" fill="none" xmlns="http://www.w3.org/2000/svg">
<g clip-path="url(#clip0_877_13361)">
<path d="M10.8574 1.80078C13.5293 1.80078 13.8457 1.8125 14.8965 1.85937C15.873 1.90234 16.4004 2.06641 16.752 2.20312C17.2168 2.38281 17.5527 2.60156 17.9004 2.94922C18.252 3.30078 18.4668 3.63281 18.6465 4.09766C18.7832 4.44922 18.9473 4.98047 18.9902 5.95312C19.0371 7.00781 19.0488 7.32422 19.0488 9.99219C19.0488 12.6641 19.0371 12.9805 18.9902 14.0312C18.9473 15.0078 18.7832 15.5352 18.6465 15.8867C18.4668 16.3516 18.248 16.6875 17.9004 17.0352C17.5488 17.3867 17.2168 17.6016 16.752 17.7812C16.4004 17.918 15.8691 18.082 14.8965 18.125C13.8418 18.1719 13.5254 18.1836 10.8574 18.1836C8.18555 18.1836 7.86914 18.1719 6.81836 18.125C5.8418 18.082 5.31445 17.918 4.96289 17.7812C4.49805 17.6016 4.16211 17.3828 3.81445 17.0352C3.46289 16.6836 3.24805 16.3516 3.06836 15.8867C2.93164 15.5352 2.76758 15.0039 2.72461 14.0312C2.67773 12.9766 2.66602 12.6602 2.66602 9.99219C2.66602 7.32031 2.67773 7.00391 2.72461 5.95312C2.76758 4.97656 2.93164 4.44922 3.06836 4.09766C3.24805 3.63281 3.4668 3.29687 3.81445 2.94922C4.16602 2.59766 4.49805 2.38281 4.96289 2.20312C5.31445 2.06641 5.8457 1.90234 6.81836 1.85937C7.86914 1.8125 8.18555 1.80078 10.8574 1.80078ZM10.8574 0C8.14258 0 7.80273 0.0117187 6.73633 0.0585937C5.67383 0.105469 4.94336 0.277344 4.31055 0.523437C3.65039 0.78125 3.0918 1.12109 2.53711 1.67969C1.97852 2.23437 1.63867 2.79297 1.38086 3.44922C1.13477 4.08594 0.962891 4.8125 0.916016 5.875C0.869141 6.94531 0.857422 7.28516 0.857422 10C0.857422 12.7148 0.869141 13.0547 0.916016 14.1211C0.962891 15.1836 1.13477 15.9141 1.38086 16.5469C1.63867 17.207 1.97852 17.7656 2.53711 18.3203C3.0918 18.875 3.65039 19.2187 4.30664 19.4727C4.94336 19.7187 5.66992 19.8906 6.73242 19.9375C7.79883 19.9844 8.13867 19.9961 10.8535 19.9961C13.5684 19.9961 13.9082 19.9844 14.9746 19.9375C16.0371 19.8906 16.7676 19.7187 17.4004 19.4727C18.0566 19.2187 18.6152 18.875 19.1699 18.3203C19.7246 17.7656 20.0684 17.207 20.3223 16.5508C20.5684 15.9141 20.7402 15.1875 20.7871 14.125C20.834 13.0586 20.8457 12.7187 20.8457 10.0039C20.8457 7.28906 20.834 6.94922 20.7871 5.88281C20.7402 4.82031 20.5684 4.08984 20.3223 3.45703C20.0762 2.79297 19.7363 2.23437 19.1777 1.67969C18.623 1.125 18.0645 0.78125 17.4082 0.527344C16.7715 0.28125 16.0449 0.109375 14.9824 0.0625C13.9121 0.0117188 13.5723 0 10.8574 0Z" fill="black"/>
<path d="M10.8574 4.86328C8.02148 4.86328 5.7207 7.16406 5.7207 10C5.7207 12.8359 8.02148 15.1367 10.8574 15.1367C13.6934 15.1367 15.9941 12.8359 15.9941 10C15.9941 7.16406 13.6934 4.86328 10.8574 4.86328ZM10.8574 13.332C9.01758 13.332 7.52539 11.8398 7.52539 10C7.52539 8.16016 9.01758 6.66797 10.8574 6.66797C12.6973 6.66797 14.1895 8.16016 14.1895 10C14.1895 11.8398 12.6973 13.332 10.8574 13.332Z" fill="black"/>
<path d="M17.3965 4.66016C17.3965 5.32422 16.8574 5.85938 16.1973 5.85938C15.5332 5.85938 14.998 5.32031 14.998 4.66016C14.998 3.99609 15.5371 3.46094 16.1973 3.46094C16.8574 3.46094 17.3965 4 17.3965 4.66016Z" fill="black"/>
</g>
<defs>
<clipPath id="clip0_877_13361">
<rect width="20" height="20" fill="white" transform="translate(0.857422)"/>
</clipPath>
</defs>
</svg>
