<svg width="21" height="20" viewBox="0 0 21 20" fill="none" xmlns="http://www.w3.org/2000/svg">
<g clip-path="url(#clip0_877_13362)">
<path d="M18.8047 0H1.76172C0.945312 0 0.285156 0.644531 0.285156 1.44141V18.5547C0.285156 19.3516 0.945312 20 1.76172 20H18.8047C19.6211 20 20.2852 19.3516 20.2852 18.5586V1.44141C20.2852 0.644531 19.6211 0 18.8047 0ZM6.21875 17.043H3.25V7.49609H6.21875V17.043ZM4.73438 6.19531C3.78125 6.19531 3.01172 5.42578 3.01172 4.47656C3.01172 3.52734 3.78125 2.75781 4.73438 2.75781C5.68359 2.75781 6.45312 3.52734 6.45312 4.47656C6.45312 5.42188 5.68359 6.19531 4.73438 6.19531ZM17.3281 17.043H14.3633V12.4023C14.3633 11.2969 14.3437 9.87109 12.8203 9.87109C11.2773 9.87109 11.043 11.0781 11.043 12.3242V17.043H8.08203V7.49609H10.9258V8.80078H10.9648C11.3594 8.05078 12.3281 7.25781 13.7695 7.25781C16.7734 7.25781 17.3281 9.23438 17.3281 11.8047V17.043Z" fill="black"/>
</g>
<defs>
<clipPath id="clip0_877_13362">
<rect width="20" height="20" fill="white" transform="translate(0.285156)"/>
</clipPath>
</defs>
</svg>
