<svg width="48" height="48" viewBox="0 0 48 48" fill="none" xmlns="http://www.w3.org/2000/svg">
<circle cx="24" cy="24" r="24" fill="#FFFAEB"/>
<path d="M15.2944 24.8813C15.2654 24.5915 15.2506 24.2975 15.2506 24C15.2506 23.7025 15.2654 23.4085 15.2944 23.1187L13.0078 20.5401L15.5078 16.2099L18.8843 16.9009C19.3597 16.5577 19.871 16.261 20.4114 16.0177L21.5006 12.75H26.5006L27.5898 16.0177C28.1302 16.261 28.6415 16.5577 29.1169 16.9009L32.4934 16.2099L34.9934 20.5401L32.7068 23.1187C32.7358 23.4085 32.7506 23.7025 32.7506 24C32.7506 24.2975 32.7358 24.5915 32.7068 24.8813L34.9934 27.4599L32.4934 31.7901L29.1169 31.0991C28.6415 31.4423 28.1302 31.739 27.5898 31.9823L26.5006 35.25H21.5006L20.4114 31.9823C19.871 31.739 19.3597 31.4423 18.8843 31.0991L15.5078 31.7901L13.0078 27.4599L15.2944 24.8813Z" stroke="#ECB100" stroke-width="2" stroke-linecap="square"/>
<path d="M24 25.25C24.6904 25.25 25.25 24.6904 25.25 24C25.25 23.3096 24.6904 22.75 24 22.75C23.3096 22.75 22.75 23.3096 22.75 24C22.75 24.6904 23.3096 25.25 24 25.25Z" stroke="#ECB100" stroke-width="2" stroke-linecap="square"/>
</svg>
