<svg width="48" height="48" viewBox="0 0 48 48" fill="none" xmlns="http://www.w3.org/2000/svg">
<circle cx="24" cy="24" r="24" fill="#F5E8F5"/>
<g clip-path="url(#clip0_1647_40738)">
<g clip-path="url(#clip1_1647_40738)">
<path d="M33.7063 32.0087L33.7041 32.0083C32.7843 31.8366 31.8249 31.7625 30.875 31.7625C29.8403 31.7625 28.566 31.961 27.3387 32.2929C26.1103 32.6251 24.9485 33.0857 24.1332 33.5991L23.75 33.8403V33.3875V19V18.862L23.8668 18.7884C24.739 18.2393 25.9522 17.7624 27.2082 17.4227C28.4653 17.0828 29.7847 16.875 30.875 16.875C32.041 16.875 33.1964 16.989 34.3031 17.2307L33.7063 32.0087ZM33.7063 32.0087C34.6255 32.1717 35.5 31.4895 35.5 30.5375V18.7C35.5 17.9913 34.9896 17.38 34.3033 17.2308L34.25 17.475C34.825 17.6 35.25 18.1125 35.25 18.7V30.5375C35.25 31.325 34.525 31.9 33.75 31.7625L33.7063 32.0087ZM23.8489 16.6992L24 16.8138L24.1511 16.6992C25.9005 15.372 28.4608 14.875 30.875 14.875C32.6661 14.875 34.5529 15.1473 36.1102 15.8406C36.9386 16.2154 37.4875 17.0171 37.4875 17.925V32.025C37.4875 33.5028 36.1135 34.5781 34.7008 34.2082L34.6993 34.2078C33.4511 33.8893 32.13 33.75 30.8625 33.75C28.8909 33.75 26.7731 34.0652 25.0507 34.9264L25.0492 34.9272C24.3835 35.2656 23.617 35.2665 22.9368 34.9264L22.9355 34.9257C21.2145 34.0781 19.0979 33.75 17.125 33.75C15.8575 33.75 14.5364 33.8893 13.2882 34.2078C11.8733 34.5669 10.5 33.4889 10.5 32.025V17.925C10.5 17.0173 11.0488 16.2156 11.877 15.8407C13.4472 15.1472 15.3343 14.875 17.125 14.875C19.5392 14.875 22.0995 15.372 23.8489 16.6992Z" fill="#CB81C8" stroke="#F5E8F5" stroke-width="0.5"/>
<path d="M25.8265 22.0377L25.8265 22.0377L25.825 22.0333C25.7065 21.6776 25.9093 21.2846 26.2614 21.1763L26.2614 21.1763L26.265 21.1751C28.1504 20.563 30.6007 20.3641 32.8584 20.6231C33.2384 20.6699 33.5098 21.0119 33.4647 21.3821C33.4183 21.7625 33.0761 22.0343 32.7056 21.9892L32.7045 21.989C30.6574 21.7489 28.4185 21.9354 26.7078 22.48C26.6739 22.4847 26.6394 22.4906 26.61 22.4955C26.597 22.4977 26.5851 22.4998 26.5746 22.5014C26.5281 22.5089 26.4978 22.5123 26.4753 22.5123C26.1805 22.5123 25.9176 22.3295 25.8265 22.0377Z" fill="#CB81C8" stroke="#F5E8F5" stroke-width="0.5"/>
<path d="M25.8265 25.3629L25.8265 25.3629L25.825 25.3585C25.7065 25.0028 25.9093 24.6098 26.2614 24.5015L26.2614 24.5015L26.2655 24.5001C28.1379 23.8882 30.6005 23.6893 32.8584 23.9483C33.2384 23.9951 33.5098 24.3371 33.4647 24.7073C33.4183 25.0877 33.0761 25.3595 32.7056 25.3143L32.7045 25.3142C30.6522 25.0735 28.4071 25.2615 26.6947 25.8093C26.6153 25.8286 26.5385 25.8375 26.4753 25.8375C26.1805 25.8375 25.9176 25.6547 25.8265 25.3629Z" fill="#CB81C8" stroke="#F5E8F5" stroke-width="0.5"/>
<path d="M25.8265 28.6881L25.8265 28.6881L25.825 28.6837C25.7065 28.328 25.9093 27.935 26.2614 27.8267L26.2614 27.8267L26.2655 27.8253C28.1379 27.2134 30.6005 27.0145 32.8584 27.2735C33.2384 27.3203 33.5098 27.6622 33.4647 28.0324C33.4191 28.4065 33.0814 28.675 32.7019 28.6391C30.6503 28.3989 28.4064 28.587 26.6947 29.1345C26.6153 29.1538 26.5385 29.1627 26.4753 29.1627C26.1805 29.1627 25.9176 28.9799 25.8265 28.6881Z" fill="#CB81C8" stroke="#F5E8F5" stroke-width="0.5"/>
</g>
</g>
<defs>
<clipPath id="clip0_1647_40738">
<rect width="30" height="30" fill="white" transform="translate(9 9)"/>
</clipPath>
<clipPath id="clip1_1647_40738">
<rect width="30" height="30" fill="white" transform="translate(9 9)"/>
</clipPath>
</defs>
</svg>
