<svg width="48" height="48" viewBox="0 0 48 48" fill="none" xmlns="http://www.w3.org/2000/svg">
<circle cx="24" cy="24" r="24" fill="#EEFDFF"/>
<path d="M26.4 26.0498C27.9505 26.0531 29.4366 26.6705 30.5329 27.7669C31.6293 28.8633 32.2467 30.3493 32.25 31.8998C32.25 31.9926 32.2131 32.0817 32.1475 32.1473C32.0819 32.2129 31.9928 32.2498 31.9 32.2498H16.1C16.0072 32.2498 15.9182 32.2129 15.8525 32.1473C15.7869 32.0817 15.75 31.9926 15.75 31.8998C15.7533 30.3493 16.3707 28.8633 17.4671 27.7669C18.5634 26.6705 20.0495 26.0531 21.6 26.0498H26.4ZM26.4 24.2998H21.6C19.5844 24.2998 17.6513 25.1005 16.226 26.5258C14.8007 27.9511 14 29.8842 14 31.8998C14 32.4568 14.2212 32.9909 14.6151 33.3847C15.0089 33.7786 15.543 33.9998 16.1 33.9998H31.9C32.457 33.9998 32.9911 33.7786 33.3849 33.3847C33.7788 32.9909 34 32.4568 34 31.8998C34 29.8842 33.1993 27.9511 31.774 26.5258C30.3487 25.1005 28.4156 24.2998 26.4 24.2998Z" fill="#62B4FF"/>
<path d="M24.0008 15.7875C24.5842 15.7875 25.1546 15.9605 25.6397 16.2847C26.1248 16.6088 26.5029 17.0695 26.7262 17.6086C26.9495 18.1476 27.0079 18.7408 26.8941 19.313C26.7803 19.8853 26.4993 20.4109 26.0867 20.8235C25.6742 21.236 25.1485 21.517 24.5763 21.6308C24.0041 21.7446 23.4109 21.6862 22.8719 21.4629C22.3328 21.2397 21.8721 20.8616 21.5479 20.3764C21.2238 19.8913 21.0508 19.321 21.0508 18.7375C21.0508 18.3501 21.1271 17.9665 21.2753 17.6086C21.4236 17.2507 21.6409 16.9255 21.9148 16.6515C22.4681 16.0983 23.2184 15.7875 24.0008 15.7875ZM24.0008 14C23.0712 14 22.1625 14.2757 21.3896 14.7921C20.6167 15.3085 20.0143 16.0426 19.6585 16.9014C19.3028 17.7602 19.2097 18.7052 19.3911 19.6169C19.5724 20.5286 20.0201 21.3661 20.6774 22.0234C21.3347 22.6807 22.1721 23.1283 23.0839 23.3097C23.9956 23.491 24.9406 23.398 25.7994 23.0422C26.6582 22.6865 27.3922 22.0841 27.9087 21.3112C28.4251 20.5383 28.7008 19.6296 28.7008 18.7C28.7008 17.4535 28.2056 16.258 27.3242 15.3766C26.4428 14.4952 25.2473 14 24.0008 14Z" fill="#62B4FF"/>
</svg>
