<svg width="48" height="48" viewBox="0 0 48 48" fill="none" xmlns="http://www.w3.org/2000/svg">
<circle cx="24" cy="24" r="24" fill="#E4ECF5"/>
<g clip-path="url(#clip0_2087_41397)">
<path d="M31.9008 16.0997C31.4508 16.5497 31.4134 17.2497 31.8134 17.7497C33.6259 20.0247 34.5759 23.1372 33.7259 26.3997C32.7384 30.2122 29.7509 33.0622 25.9634 33.8247C19.5884 35.0872 14.0009 30.1622 14.0009 23.9997C14.0009 18.8997 17.8134 14.6997 22.7509 14.0872V16.6122C18.8384 17.2747 15.9634 20.9372 16.5884 25.1497C17.0759 28.4122 19.7884 31.0372 23.0634 31.4372C27.6134 31.9997 31.5009 28.4497 31.5009 23.9997C31.5009 22.4372 31.0259 20.9997 30.2134 19.7997C29.7884 19.1747 28.8759 19.1372 28.3384 19.6622L28.3259 19.6747C27.9009 20.0997 27.8634 20.7622 28.1884 21.2622C28.9384 22.4122 29.2384 23.8872 28.8009 25.4122C28.3134 27.1247 26.8759 28.4872 25.1259 28.8747C21.8759 29.5872 19.0009 27.1372 19.0009 23.9997C19.0009 21.6747 20.6009 19.7372 22.7509 19.1747V21.8497C22.0009 22.2872 21.5009 23.0747 21.5009 23.9997C21.5009 25.3747 22.6259 26.4997 24.0009 26.4997C25.3759 26.4997 26.5009 25.3747 26.5009 23.9997C26.5009 23.0747 26.0009 22.2747 25.2509 21.8497V12.3872C25.2509 11.8997 24.8509 11.4997 24.3634 11.4997C17.6634 11.2497 11.8884 16.5747 11.5259 23.2497C11.0759 31.4372 18.2884 38.0247 26.5384 36.2497C31.3884 35.2122 35.1384 31.4997 36.2259 26.6622C37.1134 22.7122 35.9758 18.9622 33.7633 16.1997C33.3008 15.6122 32.4258 15.5747 31.9008 16.0997V16.0997Z" fill="#6E9DC9"/>
</g>
<defs>
<clipPath id="clip0_2087_41397">
<rect width="30" height="30" fill="white" transform="translate(9 9)"/>
</clipPath>
</defs>
</svg>
