<svg width="48" height="48" viewBox="0 0 48 48" fill="none" xmlns="http://www.w3.org/2000/svg">
<circle cx="24" cy="24" r="24" fill="#E4F3F7"/>
<path d="M27.4375 23.75L32.4375 20.875L27.4375 18L22.4375 20.875L27.4375 23.75ZM27.4375 27.5625L30.875 25.5625V22.9375L27.4375 24.9375L24 22.9375V25.5625L27.4375 27.5625ZM34.6562 34H27.7812C27.7812 33.6875 27.7708 33.375 27.75 33.0625C27.7292 32.75 27.6979 32.4375 27.6562 32.125H34.6562V15.875H13.4062V17.75C13.0938 17.7083 12.7812 17.6771 12.4688 17.6562C12.1562 17.6354 11.8438 17.625 11.5312 17.625V15.875C11.5312 15.3594 11.7148 14.918 12.082 14.5508C12.4492 14.1836 12.8906 14 13.4062 14H34.6562C35.1719 14 35.6133 14.1836 35.9805 14.5508C36.3477 14.918 36.5312 15.3594 36.5312 15.875V32.125C36.5312 32.6406 36.3477 33.082 35.9805 33.4492C35.6133 33.8164 35.1719 34 34.6562 34ZM11.5312 34V30.75C12.3993 30.75 13.1372 31.066 13.7448 31.6979C14.3524 32.3299 14.6562 33.0972 14.6562 34H11.5312ZM17.7812 34C17.7812 32.2362 17.1771 30.7328 15.9688 29.4897C14.7604 28.2466 13.2812 27.625 11.5312 27.625V25.75C13.7946 25.75 15.7147 26.5573 17.2913 28.1719C18.8679 29.7865 19.6562 31.7292 19.6562 34H17.7812ZM22.7812 34C22.7812 32.4375 22.4896 30.9635 21.9062 29.5781C21.3229 28.1927 20.5208 26.9844 19.5 25.9531C18.4792 24.9219 17.2865 24.1094 15.9219 23.5156C14.5573 22.9219 13.0938 22.625 11.5312 22.625V20.75C13.3438 20.75 15.0469 21.099 16.6406 21.7969C18.2344 22.4948 19.625 23.4427 20.8125 24.6406C22 25.8385 22.9375 27.2448 23.625 28.8594C24.3125 30.474 24.6562 32.1875 24.6562 34H22.7812Z" fill="#6EC2D4"/>
</svg>
