<svg width="21" height="20" viewBox="0 0 21 20" fill="none" xmlns="http://www.w3.org/2000/svg">
<g clip-path="url(#clip0_877_13360)">
<path d="M6.72051 18.1246C14.2658 18.1246 18.3939 11.8719 18.3939 6.45119C18.3939 6.2754 18.39 6.09572 18.3822 5.91993C19.1853 5.33919 19.8783 4.61985 20.4287 3.79572C19.6808 4.12847 18.8867 4.34579 18.0736 4.44025C18.9298 3.92706 19.5708 3.12086 19.8779 2.17111C19.0725 2.64843 18.1917 2.98514 17.2732 3.16681C16.6544 2.50927 15.8362 2.0739 14.9451 1.92801C14.054 1.78212 13.1397 1.93384 12.3435 2.35971C11.5473 2.78559 10.9135 3.46189 10.5402 4.28406C10.167 5.10623 10.0749 6.02848 10.2783 6.90822C8.64745 6.82638 7.05199 6.40272 5.59536 5.66472C4.13873 4.92671 2.85346 3.89083 1.82285 2.62423C1.29904 3.52734 1.13876 4.59601 1.37457 5.61304C1.61038 6.63008 2.2246 7.51917 3.09238 8.09962C2.4409 8.07894 1.80369 7.90353 1.2334 7.5879V7.63868C1.23281 8.58643 1.56046 9.50512 2.16064 10.2386C2.76081 10.9721 3.59648 11.4751 4.52559 11.6621C3.92209 11.8272 3.2887 11.8513 2.67441 11.7324C2.93659 12.5475 3.44669 13.2604 4.13352 13.7716C4.82035 14.2828 5.64964 14.5668 6.50566 14.584C5.0524 15.7256 3.25719 16.3447 1.40918 16.3418C1.08145 16.3413 0.754043 16.3212 0.428711 16.2817C2.30609 17.4861 4.48999 18.1258 6.72051 18.1246Z" fill="black"/>
</g>
<defs>
<clipPath id="clip0_877_13360">
<rect width="20" height="20" fill="white" transform="translate(0.428711)"/>
</clipPath>
</defs>
</svg>
